<svg width="122" height="45" viewBox="0 0 122 45" fill="none" xmlns="http://www.w3.org/2000/svg">
<path fill-rule="evenodd" clip-rule="evenodd" d="M36.0518 29.8292C35.7024 30.1838 35.4958 30.436 35.4958 30.436H28.3633C28.7684 30.0814 29.2291 29.1199 29.1735 28.5131C29.0702 27.9063 28.7128 26.0858 28.7128 26.0858H21.6358L19.7455 28.6628C19.7455 28.6628 19.3404 29.6795 19.6422 30.436H15.0037C15.0037 30.436 16.5366 28.8677 17.45 27.7486C18.3714 26.5901 26.5762 15.0998 26.5762 15.0998L26.1711 14.1383H33.3513C33.3513 14.1383 35.5991 28.2057 35.6468 28.4579C35.7024 28.6628 35.7977 29.2697 36.0518 29.8292ZM28.26 23.2959L27.3387 18.1339L23.6215 23.2959H28.26Z" fill="#EDEDED"/>
<path fill-rule="evenodd" clip-rule="evenodd" d="M56.0833 28.4579C56.1389 28.7653 56.3375 29.9317 57.0047 30.436H48.8475C49.4115 30.0262 49.7133 29.1199 49.61 28.5131C49.5068 27.9063 49.205 26.0858 49.205 26.0858H42.1201L40.2376 28.6628C40.2376 28.6628 39.8246 29.6795 40.1344 30.436H35.4958C35.4958 30.436 35.7024 30.1838 36.0518 29.8292C36.6158 29.2697 37.3783 28.4106 37.9422 27.7486C38.8556 26.5901 47.0128 15.0998 47.0128 15.0998L46.6077 14.1383H53.7879C53.7879 14.1383 56.0357 28.2057 56.0833 28.4579ZM48.7443 23.2959L47.8309 18.1339L44.1057 23.2959H48.7443ZM78.0529 17.5823C77.7431 18.8984 76.5199 24.3598 75.6065 27.2443C74.6852 30.0814 72.4453 30.436 70.9203 30.436H61.1826C59.3478 30.436 57.9737 29.0647 58.5853 26.5901C58.5853 26.5901 60.3645 19.3003 61.0793 17.1252C61.8418 14.95 64.1929 14.1383 65.7655 14.1383H75.1459C78.1005 14.1383 78.3071 16.211 78.0529 17.5823ZM71.1745 17.07H67.91C67.4494 17.07 67.0919 17.4246 66.8934 17.8817C66.7345 18.3388 64.6456 26.8423 64.6456 26.8423C64.447 27.7014 64.9554 27.7486 65.6146 27.7486H68.5216C69.1809 27.7486 69.5383 27.4019 69.6972 26.7872C69.8957 26.1803 71.7305 18.9457 71.8814 18.1339C72.0879 17.1725 71.5796 17.07 71.1745 17.07ZM99.5061 14.1383C99.252 14.288 98.7436 14.6979 98.5371 15.3993C98.3386 16.0612 94.7167 30.436 94.7167 30.436H86.7184L83.4063 17.07C83.4063 17.07 80.6025 28.4106 80.4436 29.0647C80.2927 29.7267 80.4436 29.9789 80.6501 30.436H76.7741C77.2348 30.2311 77.4413 29.8292 77.6955 28.9702C77.902 28.1584 80.9043 16.2662 81.0076 15.8563C81.0552 15.3993 81.2141 14.7924 80.7534 14.1383C81.6668 14.1383 89.3633 14.1383 89.3633 14.1383L92.731 27.4964C92.731 27.4964 95.638 15.9588 95.7334 15.5017C95.789 15.0525 95.6857 14.3905 95.4315 14.1383H99.5061Z" fill="#EDEDED"/>
<path fill-rule="evenodd" clip-rule="evenodd" d="M121.984 22.5393C121.984 34.936 94.6691 44.9605 61.0317 44.9605C27.3387 44.9605 0.0714111 34.936 0.0714111 22.5393C0.0714111 10.1427 27.9503 0.0708618 61.0317 0.0708618C94.6691 0.0708618 121.984 10.1427 121.984 22.5393ZM120.912 22.4921C120.912 12.2153 94.1051 3.91675 61.0317 3.91675C28.5619 3.91675 1.09602 12.2153 1.09602 22.4921C1.09602 32.7609 27.9503 41.0674 61.0317 41.0674C94.1051 41.0674 120.912 32.7609 120.912 22.4921Z" fill="#EDEDED"/>
<path fill-rule="evenodd" clip-rule="evenodd" d="M102.922 15.9115C102.715 16.8729 101.802 17.5822 100.88 17.5822C99.9669 17.5822 99.3553 16.8729 99.5618 15.9115C99.7604 14.8948 100.682 14.2407 101.595 14.2407C102.516 14.2407 103.128 14.8948 102.922 15.9115ZM101.547 14.4929C100.785 14.4929 100.015 15.0997 99.8636 15.9115C99.7127 16.668 100.173 17.2749 100.936 17.2749C101.698 17.2749 102.413 16.668 102.564 15.9115C102.771 15.0997 102.31 14.4929 101.547 14.4929Z" fill="#EDEDED"/>
<path fill-rule="evenodd" clip-rule="evenodd" d="M102.103 15.4544C102.008 15.809 101.754 15.9588 101.492 16.0139L101.849 16.8729H101.547L101.19 16.0139H100.833L100.682 16.8729H100.372L100.785 14.8948H101.547C102.008 14.8948 102.159 15.0997 102.103 15.4544ZM101.802 15.4544C101.849 15.2022 101.651 15.147 101.444 15.147H101.039L100.88 15.7539H101.238C101.492 15.7539 101.746 15.7539 101.802 15.4544Z" fill="#EDEDED"/>
</svg>
