<svg width="22" height="22" viewBox="0 0 22 22" fill="none" xmlns="http://www.w3.org/2000/svg">
<path d="M10.2041 0.0349375C10.4403 -0.0116458 10.6841 -0.0116458 10.9213 0.0349375C11.1932 0.0869375 11.4402 0.215854 11.6699 0.335021L11.7273 0.365354L20.6865 5.00202C20.8187 5.07053 20.9296 5.17405 21.0069 5.3013C21.0843 5.42854 21.1252 5.5746 21.1252 5.72352V14.2797C21.1252 14.5863 21.1274 14.9113 21.0245 15.2135C20.9339 15.4768 20.788 15.7177 20.5966 15.9199C20.3745 16.1517 20.0841 16.3001 19.8133 16.4399L19.7451 16.4756L10.9365 21.0343C10.821 21.0941 10.6928 21.1253 10.5627 21.1253C10.4326 21.1253 10.3045 21.0941 10.189 21.0343L1.38039 16.4756L1.31214 16.4399C1.0413 16.3001 0.750971 16.1517 0.528888 15.9199C0.337456 15.7177 0.191546 15.4768 0.100971 15.2135C-0.0019456 14.9102 -0.000862197 14.5852 0.000221137 14.2786V5.72352C0.000209061 5.5746 0.0411268 5.42854 0.118504 5.3013C0.195881 5.17405 0.30674 5.07053 0.438971 5.00202L9.39705 0.365354L9.45447 0.336104C9.68522 0.215854 9.93114 0.0869375 10.2041 0.0349375ZM10.449 1.6556C10.346 1.70422 10.2441 1.75515 10.1435 1.80835L2.61972 5.70294L5.6823 7.20227L13.6513 3.19069L10.9809 1.80835C10.8802 1.75515 10.7784 1.70422 10.6754 1.6556L10.6126 1.6296M15.4334 4.1126L7.51422 8.09927L10.5627 9.58994L18.5057 5.70294L15.4334 4.1126ZM9.75022 18.9759V11.0026L6.50022 9.41119V10.4945C6.50022 10.71 6.41462 10.9167 6.26225 11.069C6.10987 11.2214 5.90321 11.307 5.68772 11.307C5.47223 11.307 5.26557 11.2214 5.1132 11.069C4.96082 10.9167 4.87522 10.71 4.87522 10.4945V8.61602L1.62522 7.02569V14.2017C1.62522 14.4043 1.62522 14.5202 1.63064 14.6079L1.64039 14.6924C1.6544 14.7303 1.67534 14.7652 1.70214 14.7954C1.70755 14.7997 1.72489 14.8138 1.77147 14.8409C1.84514 14.8864 1.94805 14.9384 2.1268 15.0315L9.75022 18.9759Z" fill="#272931"/>
</svg>
