<svg width="22" height="22" viewBox="0 0 22 22" fill="none" xmlns="http://www.w3.org/2000/svg">
<path d="M10.6414 0.0349375C10.8776 -0.0116458 11.1213 -0.0116458 11.3586 0.0349375C11.6305 0.0869375 11.8775 0.215854 12.1071 0.335021L12.1646 0.365354L21.1237 5.00202C21.256 5.07053 21.3668 5.17405 21.4442 5.3013C21.5216 5.42854 21.5625 5.5746 21.5625 5.72352V14.2797C21.5625 14.5863 21.5646 14.9113 21.4617 15.2135C21.3712 15.4768 21.2252 15.7177 21.0338 15.9199C20.8117 16.1517 20.5214 16.3001 20.2506 16.4399L20.1823 16.4756L11.3737 21.0343C11.2582 21.0941 11.1301 21.1253 11 21.1253C10.8699 21.1253 10.7417 21.0941 10.6262 21.0343L1.81764 16.4756L1.74939 16.4399C1.47856 16.3001 1.18823 16.1517 0.966144 15.9199C0.774712 15.7177 0.628802 15.4768 0.538227 15.2135C0.43531 14.9102 0.436394 14.5852 0.437477 14.2786V5.72352C0.437465 5.5746 0.478383 5.42854 0.55576 5.3013C0.633137 5.17405 0.743996 5.07053 0.876227 5.00202L9.83431 0.365354L9.89173 0.336104C10.1225 0.215854 10.3684 0.0869375 10.6414 0.0349375ZM10.8862 1.6556C10.7833 1.70422 10.6814 1.75515 10.5807 1.80835L3.05698 5.70294L6.11956 7.20227L14.0886 3.19069L11.4181 1.80835C11.3175 1.75515 11.2156 1.70422 11.1126 1.6556L11.0498 1.6296M15.8706 4.1126L7.95148 8.09927L11 9.58994L18.943 5.70294L15.8706 4.1126ZM10.1875 18.9759V11.0026L6.93748 9.41119V10.4945C6.93748 10.71 6.85187 10.9167 6.6995 11.069C6.54713 11.2214 6.34047 11.307 6.12498 11.307C5.90949 11.307 5.70283 11.2214 5.55045 11.069C5.39808 10.9167 5.31248 10.71 5.31248 10.4945V8.61602L2.06248 7.02569V14.2017C2.06248 14.4043 2.06248 14.5202 2.06789 14.6079L2.07764 14.6924C2.09166 14.7303 2.1126 14.7652 2.13939 14.7954C2.14481 14.7997 2.16214 14.8138 2.20873 14.8409C2.28239 14.8864 2.38531 14.9384 2.56406 15.0315L10.1875 18.9759Z" fill="#FBFBFB"/>
</svg>
