<svg width="24" height="18" viewBox="0 0 24 18" fill="none" xmlns="http://www.w3.org/2000/svg">
<path d="M6.04165 17.6667C4.39859 17.6667 2.99495 17.098 1.83073 15.9605C0.666507 14.823 0.0840352 13.4327 0.083313 11.7896C0.083313 10.3813 0.507618 9.12643 1.35623 8.02504C2.20484 6.92365 3.31526 6.21948 4.68748 5.91254C5.13887 4.25143 6.04165 2.90629 7.39581 1.87712C8.74998 0.847958 10.2847 0.333374 12 0.333374C14.1125 0.333374 15.9047 1.06932 17.3766 2.54121C18.8485 4.0131 19.584 5.80493 19.5833 7.91671C20.8291 8.06115 21.863 8.59849 22.6849 9.52871C23.5068 10.4589 23.9174 11.5466 23.9166 12.7917C23.9166 14.1459 23.4429 15.2971 22.4953 16.2454C21.5478 17.1937 20.3965 17.6674 19.0416 17.6667H6.04165Z" fill="#272931"/>
</svg>
