<svg width="24" height="18" viewBox="0 0 24 18" fill="none" xmlns="http://www.w3.org/2000/svg">
<path d="M6.04171 17.6666C4.39865 17.6666 2.99501 17.0979 1.83079 15.9604C0.666568 14.8229 0.0840962 13.4326 0.083374 11.7896C0.083374 10.3812 0.50768 9.12637 1.35629 8.02498C2.2049 6.92359 3.31532 6.21942 4.68754 5.91248C5.13893 4.25137 6.04171 2.90623 7.39587 1.87706C8.75004 0.847897 10.2848 0.333313 12 0.333313C14.1125 0.333313 15.9047 1.06926 17.3766 2.54115C18.8485 4.01304 19.5841 5.80487 19.5834 7.91665C20.8292 8.06109 21.8631 8.59842 22.685 9.52865C23.5068 10.4589 23.9174 11.5465 23.9167 12.7916C23.9167 14.1458 23.4429 15.297 22.4954 16.2453C21.5478 17.1936 20.3966 17.6674 19.0417 17.6666H6.04171Z" fill="#FBFBFB"/>
</svg>
