<svg width="16" height="10" viewBox="0 0 16 10" fill="none" xmlns="http://www.w3.org/2000/svg">
<path d="M8.103 7.778L14.81 1.08C14.8751 1.01455 14.9527 0.962828 15.0382 0.927904C15.1236 0.892979 15.2152 0.875561 15.3075 0.87668C15.3999 0.877799 15.491 0.897433 15.5756 0.934418C15.6602 0.971404 15.7365 1.02499 15.8 1.092C15.9301 1.22906 16.0016 1.41146 15.9994 1.60044C15.9972 1.78941 15.9213 1.97006 15.788 2.104L8.585 9.297C8.52037 9.36207 8.44341 9.4136 8.35863 9.44859C8.27386 9.48357 8.18295 9.5013 8.09124 9.50074C7.99953 9.50018 7.90885 9.48135 7.8245 9.44533C7.74016 9.40932 7.66383 9.35685 7.6 9.291L0.205 1.72C0.0741232 1.58446 0.000976562 1.40341 0.000976562 1.215C0.000976562 1.02659 0.0741232 0.845535 0.205 0.71C0.269313 0.643774 0.34626 0.591128 0.431286 0.555177C0.516312 0.519226 0.607687 0.500702 0.700001 0.500702C0.792314 0.500702 0.883689 0.519226 0.968715 0.555177C1.05374 0.591128 1.13069 0.643774 1.195 0.71L8.103 7.778Z" fill="#EDEDED"/>
</svg>
