<svg width="21" height="18" viewBox="0 0 21 18" fill="none" xmlns="http://www.w3.org/2000/svg">
<path d="M8.40297 16.7877L8.41277 11.5794L12.5794 11.5872L12.5696 16.7955C12.5685 17.3684 13.0364 17.8381 13.6093 17.8392L16.7343 17.845C17.3072 17.8461 17.7769 17.3782 17.778 16.8053L17.7917 9.51367L19.5625 9.51701C20.0417 9.51791 20.272 8.92459 19.908 8.61141L11.2144 0.75128C10.8192 0.396369 10.2151 0.395232 9.81858 0.748653L1.0955 8.576C0.740741 8.88783 0.958373 9.48199 1.43754 9.48289L3.20837 9.48623L3.19464 16.7779C3.19357 17.3508 3.66143 17.8204 4.23435 17.8215L7.35934 17.8274C7.93226 17.8285 8.40189 17.3606 8.40297 16.7877Z" fill="#FBFBFB"/>
</svg>
