<svg width="24" height="24" viewBox="0 0 24 24" fill="none" xmlns="http://www.w3.org/2000/svg">
<path d="M7.79992 17.8333L11.9999 13.6333L16.1999 17.8333L17.8333 16.2L13.6333 12L17.8333 7.79998L16.1999 6.16665L11.9999 10.3666L7.79992 6.16665L6.16659 7.79998L10.3666 12L6.16659 16.2L7.79992 17.8333ZM11.9999 23.6666C10.386 23.6666 8.86936 23.3602 7.44992 22.7473C6.03048 22.1344 4.79575 21.3034 3.74575 20.2541C2.69575 19.2049 1.8647 17.9702 1.25259 16.55C0.640476 15.1298 0.334031 13.6131 0.333253 12C0.332476 10.3869 0.63892 8.8702 1.25259 7.44998C1.86625 6.02976 2.69731 4.79504 3.74575 3.74581C4.7942 2.69659 6.02892 1.86554 7.44992 1.25265C8.87092 0.639758 10.3876 0.333313 11.9999 0.333313C13.6123 0.333313 15.1289 0.639758 16.5499 1.25265C17.9709 1.86554 19.2056 2.69659 20.2541 3.74581C21.3025 4.79504 22.134 6.02976 22.7484 7.44998C23.3629 8.8702 23.6689 10.3869 23.6666 12C23.6643 13.6131 23.3578 15.1298 22.7473 16.55C22.1367 17.9702 21.3056 19.2049 20.2541 20.2541C19.2025 21.3034 17.9678 22.1348 16.5499 22.7485C15.132 23.3621 13.6154 23.6682 11.9999 23.6666Z" fill="#F24822"/>
</svg>
