<svg width="24" height="26" viewBox="0 0 24 26" fill="none" xmlns="http://www.w3.org/2000/svg">
<path fill-rule="evenodd" clip-rule="evenodd" d="M8.36695 2.92349C11.7993 -0.363007 17.3503 -0.363007 20.7838 2.92349C24.2383 6.22983 24.2383 11.6082 20.7838 14.9157L11.5111 23.7917C9.07279 26.125 5.13412 26.125 2.69579 23.7917C2.11312 23.243 1.64885 22.581 1.3315 21.8462C1.01416 21.1115 0.85045 20.3197 0.85045 19.5193C0.85045 18.719 1.01416 17.9271 1.3315 17.1924C1.64885 16.4577 2.11312 15.7957 2.69579 15.247L11.8355 6.49933C12.54 5.83369 13.4725 5.46284 14.4418 5.46284C15.411 5.46284 16.3436 5.83369 17.0481 6.49933C17.3954 6.82654 17.6721 7.22131 17.8613 7.65939C18.0504 8.09746 18.148 8.56958 18.148 9.04674C18.148 9.5239 18.0504 9.99603 17.8613 10.4341C17.6721 10.8722 17.3954 11.2669 17.0481 11.5942L7.84312 20.4072C7.76008 20.4867 7.66219 20.5491 7.55505 20.5907C7.4479 20.6324 7.33359 20.6526 7.21865 20.6501C7.1037 20.6476 6.99038 20.6225 6.88513 20.5762C6.77989 20.5299 6.6848 20.4634 6.60529 20.3803C6.52577 20.2973 6.46339 20.1994 6.42171 20.0923C6.38002 19.9851 6.35985 19.8708 6.36234 19.7559C6.36483 19.6409 6.38994 19.5276 6.43623 19.4223C6.48252 19.3171 6.54908 19.222 6.63212 19.1425L15.8371 10.3307C16.0134 10.1666 16.1539 9.96793 16.25 9.74714C16.3461 9.52635 16.3957 9.28813 16.3957 9.04733C16.3957 8.80653 16.3461 8.5683 16.25 8.34751C16.1539 8.12672 16.0134 7.92809 15.8371 7.76399C15.4584 7.41027 14.9594 7.21352 14.4412 7.21352C13.923 7.21352 13.424 7.41027 13.0453 7.76399L3.90562 16.5117C3.49375 16.8969 3.16539 17.3627 2.9409 17.88C2.71641 18.3974 2.60058 18.9554 2.60058 19.5193C2.60058 20.0833 2.71641 20.6413 2.9409 21.1586C3.16539 21.676 3.49375 22.1417 3.90562 22.527C5.66729 24.2128 8.53962 24.2128 10.3013 22.527L19.574 13.651C22.3086 11.033 22.3086 6.80499 19.574 4.18699C16.8171 1.54916 12.3336 1.54916 9.57562 4.18699L2.10545 11.3387C1.9379 11.4994 1.71336 11.587 1.48122 11.5822C1.24908 11.5774 1.02836 11.4805 0.86762 11.313C0.706877 11.1454 0.619276 10.9209 0.62409 10.6888C0.628903 10.4566 0.725736 10.2359 0.893287 10.0752L8.36695 2.92349Z" fill="#8E8E8E"/>
</svg>
