<svg width="28" height="28" viewBox="0 0 28 28" fill="none" xmlns="http://www.w3.org/2000/svg">
<path d="M13 21.154V3.854L8.34 8.514L6.924 7.078L14 0L21.078 7.078L19.662 8.516L15 3.854V21.154H13ZM3.232 28C2.31067 28 1.542 27.692 0.926 27.076C0.31 26.46 0.00133333 25.6907 0 24.768V19.922H2V24.768C2 25.076 2.128 25.3587 2.384 25.616C2.64 25.8733 2.922 26.0013 3.23 26H24.77C25.0767 26 25.3587 25.872 25.616 25.616C25.8733 25.36 26.0013 25.0773 26 24.768V19.922H28V24.768C28 25.6893 27.692 26.458 27.076 27.074C26.46 27.69 25.6907 27.9987 24.768 28H3.232Z" fill="#8E8E8E"/>
</svg>
