<svg width="22" height="22" viewBox="0 0 22 22" fill="none" xmlns="http://www.w3.org/2000/svg">
<path fill-rule="evenodd" clip-rule="evenodd" d="M15.8457 0.878409C14.4917 0.529532 13.0675 0.561783 11.7306 0.971597C10.3937 1.38141 9.19611 2.15283 8.27017 3.20063C7.34422 4.24843 6.72597 5.53181 6.48371 6.90896C6.24145 8.28612 6.38463 9.70344 6.89741 11.0043L1.91516 15.2217C1.5373 15.5411 1.22983 15.9353 1.0122 16.3796C0.794573 16.8239 0.671521 17.3085 0.650834 17.8028C0.630147 18.2971 0.712275 18.7903 0.892021 19.2512C1.07177 19.7121 1.34522 20.1307 1.69507 20.4805C2.04493 20.8302 2.46357 21.1036 2.92452 21.2833C3.38547 21.4629 3.87869 21.5449 4.37297 21.5241C4.86725 21.5033 5.35183 21.3802 5.79607 21.1625C6.2403 20.9447 6.6345 20.6372 6.95375 20.2592L11.169 15.2792C12.47 15.7928 13.8878 15.9366 15.2655 15.6947C16.6432 15.4529 17.9271 14.8347 18.9754 13.9086C20.0237 12.9826 20.7955 11.7846 21.2054 10.4473C21.6153 9.10993 21.6474 7.68528 21.2982 6.33083C21.2489 6.14051 21.1493 5.96698 21.0098 5.82847C20.8703 5.68996 20.6961 5.5916 20.5054 5.54371C20.3148 5.49582 20.1147 5.50019 19.9263 5.55634C19.7379 5.6125 19.5682 5.71837 19.4348 5.86283L16.1361 9.44541L13.6477 8.52999L12.7301 6.03833L16.3148 2.74499C16.4602 2.61171 16.5668 2.44163 16.6234 2.25274C16.68 2.06386 16.6845 1.86318 16.6364 1.67194C16.5884 1.4807 16.4895 1.306 16.3503 1.16631C16.2112 1.02663 16.0368 0.927155 15.8457 0.878409Z" fill="#272931"/>
</svg>
