<svg width="22" height="24" viewBox="0 0 22 24" fill="none" xmlns="http://www.w3.org/2000/svg">
<path fill-rule="evenodd" clip-rule="evenodd" d="M15.8458 0.878409C14.4917 0.529532 13.0676 0.561783 11.7307 0.971597C10.3938 1.38141 9.19617 2.15283 8.27023 3.20063C7.34429 4.24843 6.72603 5.53181 6.48377 6.90896C6.24151 8.28612 6.38469 9.70344 6.89748 11.0043L1.91522 15.2217C1.53736 15.5411 1.22989 15.9353 1.01226 16.3796C0.794634 16.8239 0.671583 17.3085 0.650896 17.8028C0.630209 18.2971 0.712336 18.7903 0.892082 19.2512C1.07183 19.7121 1.34528 20.1307 1.69513 20.4805C2.04499 20.8302 2.46363 21.1036 2.92458 21.2833C3.38553 21.4629 3.87875 21.5449 4.37303 21.5241C4.86731 21.5033 5.35189 21.3802 5.79613 21.1625C6.24036 20.9447 6.63457 20.6372 6.95381 20.2592L11.1691 15.2792C12.4701 15.7928 13.8878 15.9366 15.2655 15.6947C16.6432 15.4529 17.9272 14.8347 18.9755 13.9086C20.0238 12.9826 20.7955 11.7846 21.2054 10.4473C21.6154 9.10993 21.6475 7.68528 21.2982 6.33083C21.249 6.14051 21.1494 5.96698 21.0099 5.82847C20.8704 5.68996 20.6961 5.5916 20.5055 5.54371C20.3148 5.49582 20.1148 5.50019 19.9264 5.55634C19.738 5.6125 19.5682 5.71837 19.4349 5.86283L16.1361 9.44541L13.6477 8.52999L12.7301 6.03833L16.3149 2.74499C16.4602 2.61171 16.5668 2.44163 16.6234 2.25274C16.68 2.06386 16.6846 1.86318 16.6365 1.67194C16.5884 1.4807 16.4896 1.306 16.3504 1.16631C16.2112 1.02663 16.0369 0.927155 15.8458 0.878409Z" fill="#FBFBFB"/>
</svg>
